<?xml version="1.0" encoding="UTF-8"?>
<svg xmlns="http://www.w3.org/2000/svg" xmlns:xlink="http://www.w3.org/1999/xlink" width="171px" height="150px" viewBox="0 0 92 81" version="1.1">
<g id="surface1">
<path style=" stroke:none;fill-rule:nonzero;fill:rgb(0%,0%,0%);fill-opacity:1;" d="M 2.917969 6.085938 C 1.347656 6.085938 0 4.734375 0 3.082031 C 0 1.503906 1.347656 0.15625 2.917969 0.15625 L 10.554688 0.15625 C 10.628906 0.15625 10.78125 0.15625 10.855469 0.15625 C 13.550781 0.230469 15.945312 0.753906 17.964844 2.03125 C 20.210938 3.457031 21.859375 5.632812 22.757812 8.863281 C 22.757812 8.9375 22.757812 9.011719 22.832031 9.085938 L 23.582031 12.089844 L 89.082031 12.089844 C 90.726562 12.089844 92 13.441406 92 15.015625 C 92 15.316406 91.925781 15.617188 91.851562 15.917969 L 84.214844 46.769531 C 83.914062 48.117188 82.71875 49.019531 81.371094 49.019531 L 33.460938 49.019531 C 34.507812 52.921875 35.558594 55.023438 36.980469 56 C 38.703125 57.125 41.695312 57.199219 46.710938 57.125 L 80.621094 57.125 C 82.269531 57.125 83.542969 58.476562 83.542969 60.054688 C 83.542969 61.703125 82.195312 62.980469 80.621094 62.980469 L 46.785156 62.980469 C 40.574219 63.054688 36.753906 62.90625 33.6875 60.878906 C 30.542969 58.777344 28.894531 55.175781 27.25 48.644531 L 17.21875 10.589844 C 17.21875 10.511719 17.21875 10.511719 17.140625 10.4375 C 16.691406 8.785156 15.945312 7.660156 14.898438 7.058594 C 13.847656 6.382812 12.425781 6.085938 10.78125 6.085938 C 10.703125 6.085938 10.628906 6.085938 10.554688 6.085938 Z M 71.863281 66.433594 C 75.832031 66.433594 79.050781 69.660156 79.050781 73.640625 C 79.050781 77.617188 75.832031 80.84375 71.863281 80.84375 C 67.894531 80.84375 64.675781 77.617188 64.675781 73.640625 C 64.675781 69.660156 67.894531 66.433594 71.863281 66.433594 Z M 40.347656 66.433594 C 44.316406 66.433594 47.535156 69.660156 47.535156 73.640625 C 47.535156 77.617188 44.316406 80.84375 40.347656 80.84375 C 36.378906 80.84375 33.160156 77.617188 33.160156 73.640625 C 33.160156 69.660156 36.378906 66.433594 40.347656 66.433594 Z M 25.226562 17.945312 L 31.890625 43.089844 L 79.125 43.089844 L 85.335938 17.945312 Z M 25.226562 17.945312 "/>
</g>
</svg>
